<svg width="24" height="24" viewBox="0 0 24 24" fill="none" xmlns="http://www.w3.org/2000/svg">
  <path id="graphite" d="M 22.208 1.669 L 19.133 1.669 L 19.010 1.792 L 18.764 1.792 L 18.518 2.038 L 18.395 2.284 L 18.395 2.776 L 18.518 3.022 L 18.887 3.268 L 21.716 3.268 L 21.839 3.391 L 21.839 3.514 L 19.133 6.097 L 18.887 6.097 L 18.395 5.728 L 17.043 5.113 L 16.059 4.990 L 15.936 4.867 L 14.214 4.867 L 14.091 4.990 L 13.599 4.990 L 13.476 5.113 L 13.230 5.113 L 13.107 5.236 L 12.861 5.236 L 12.000 5.605 L 11.754 5.851 L 11.262 6.097 L 10.278 7.080 L 10.278 7.572 L 10.524 7.818 L 11.016 8.064 L 11.508 8.064 L 12.000 7.449 L 12.123 7.449 L 12.492 7.080 L 13.476 6.589 L 14.460 6.466 L 14.583 6.343 L 15.690 6.343 L 15.813 6.466 L 16.182 6.466 L 16.305 6.589 L 16.920 6.711 L 18.026 7.326 L 18.887 8.187 L 19.502 9.294 L 19.625 10.032 L 19.748 10.155 L 19.748 11.877 L 19.625 12.000 L 19.502 12.738 L 18.887 13.845 L 17.903 14.829 L 16.797 15.444 L 16.059 15.567 L 15.936 15.690 L 14.460 15.690 L 14.337 15.567 L 13.845 15.690 L 13.599 15.936 L 13.599 16.182 L 13.476 16.305 L 13.476 16.674 L 13.845 17.043 L 14.091 17.166 L 16.182 17.166 L 16.305 17.043 L 16.797 17.043 L 17.534 16.674 L 17.780 16.674 L 18.764 16.059 L 19.133 15.690 L 19.256 15.690 L 20.486 14.214 L 20.855 13.476 L 20.855 13.230 L 21.101 12.738 L 21.101 12.369 L 21.224 12.246 L 21.224 11.754 L 21.347 11.631 L 21.347 10.524 L 21.224 10.401 L 21.224 9.663 L 21.101 9.540 L 21.101 9.171 L 20.486 7.818 L 20.240 7.572 L 20.240 7.203 L 22.208 5.359 Z" fill="currentColor" fill-rule="evenodd" clip-rule="evenodd"/>
  <path id="accent" d="M 6.711 7.941 L 6.589 8.064 L 6.220 8.064 L 6.097 8.187 L 5.482 8.310 L 4.498 8.802 L 3.268 9.909 L 3.268 10.032 L 2.653 10.770 L 2.653 11.016 L 2.407 11.385 L 2.407 11.631 L 2.161 12.123 L 2.161 12.615 L 2.038 12.738 L 2.038 14.091 L 2.161 14.214 L 2.161 14.706 L 2.284 14.829 L 2.407 15.444 L 2.776 16.182 L 3.145 16.551 L 3.514 17.166 L 4.621 18.026 L 5.359 18.395 L 5.605 18.395 L 6.097 18.641 L 6.466 18.641 L 6.711 18.887 L 6.711 20.240 L 6.589 20.363 L 4.498 20.363 L 4.006 20.855 L 4.006 21.470 L 4.498 21.962 L 6.589 21.962 L 6.711 22.085 L 6.711 22.577 L 8.433 22.577 L 8.433 22.085 L 8.556 21.962 L 10.770 21.962 L 11.262 21.470 L 11.262 20.855 L 11.139 20.609 L 10.770 20.363 L 8.556 20.363 L 8.433 20.240 L 8.433 18.887 L 8.802 18.641 L 9.540 18.518 L 10.524 18.026 L 12.000 16.674 L 12.861 15.075 L 12.861 14.706 L 12.984 14.583 L 12.984 13.968 L 13.107 13.845 L 13.107 12.738 L 12.984 12.615 L 12.984 12.123 L 12.861 12.000 L 12.738 11.385 L 12.492 11.016 L 12.492 10.770 L 11.877 10.032 L 11.877 9.909 L 11.016 9.048 L 10.893 9.048 L 10.278 8.556 L 9.786 8.310 L 9.171 8.187 L 9.048 8.064 L 8.556 8.064 L 8.433 7.941 Z M 6.466 9.540 L 8.064 9.417 L 8.187 9.540 L 8.679 9.540 L 9.540 9.909 L 10.893 11.139 L 11.508 12.492 L 11.508 14.091 L 11.385 14.214 L 11.385 14.583 L 11.016 15.444 L 9.786 16.674 L 8.802 17.166 L 8.433 17.166 L 8.310 17.289 L 6.834 17.289 L 6.711 17.166 L 6.343 17.166 L 5.359 16.674 L 4.252 15.567 L 3.760 14.583 L 3.760 14.214 L 3.637 14.091 L 3.637 12.738 L 3.760 12.615 L 3.760 12.246 L 4.006 11.877 L 4.006 11.631 L 4.252 11.385 L 4.375 11.016 L 5.236 10.155 Z" fill="currentColor" fill-rule="evenodd" clip-rule="evenodd"/>
</svg>