<svg width="24" height="24" viewBox="0 0 24 24" fill="none" xmlns="http://www.w3.org/2000/svg">
  <path id="graphite" d="M 2.101 7.079 L 1.643 7.995 L 1.643 20.812 L 1.758 20.926 L 1.872 21.384 L 2.216 21.727 L 2.216 21.842 L 21.556 21.842 L 21.784 21.613 L 21.784 21.498 L 22.013 21.270 L 22.013 21.041 L 22.242 20.583 L 22.242 8.224 L 22.128 8.109 L 22.013 7.537 L 21.670 6.965 L 20.755 6.164 L 19.953 5.935 L 19.839 5.820 L 17.665 5.820 L 17.550 5.706 L 17.550 4.333 L 17.436 4.218 L 17.436 3.989 L 17.207 3.532 L 16.520 2.845 L 15.834 2.502 L 15.490 2.502 L 15.376 2.387 L 8.624 2.387 L 8.510 2.502 L 8.166 2.502 L 7.251 2.959 L 6.564 3.760 L 6.450 4.218 L 6.335 4.333 L 6.335 5.706 L 6.221 5.820 L 4.047 5.820 L 3.932 5.935 L 3.589 5.935 L 2.902 6.278 Z M 3.360 7.880 L 3.703 7.537 L 4.504 7.194 L 19.381 7.194 L 19.496 7.308 L 19.953 7.422 L 20.640 8.109 L 20.640 8.338 L 20.755 8.452 L 20.755 20.354 L 20.526 20.812 L 20.068 21.270 L 19.610 21.498 L 4.275 21.498 L 4.161 21.384 L 3.932 21.384 L 3.245 20.697 L 3.131 20.468 L 3.131 20.125 L 3.017 20.011 L 3.017 8.681 Z M 5.305 13.717 L 5.305 14.403 L 5.649 14.747 L 6.335 14.747 L 6.679 14.403 L 6.907 13.602 L 7.709 12.343 L 9.082 11.199 L 9.768 10.856 L 9.997 10.856 L 10.455 10.627 L 10.798 10.627 L 10.913 10.512 L 12.858 10.512 L 12.973 10.627 L 13.430 10.627 L 13.545 10.741 L 14.117 10.856 L 15.261 11.542 L 16.291 12.572 L 17.321 14.632 L 17.550 14.747 L 18.122 14.747 L 18.351 14.632 L 18.580 14.174 L 18.466 13.945 L 18.466 13.602 L 18.237 13.259 L 18.237 13.030 L 18.008 12.572 L 17.207 11.542 L 17.207 11.428 L 16.406 10.627 L 16.291 10.627 L 15.605 10.055 L 14.460 9.482 L 13.774 9.368 L 13.659 9.253 L 13.316 9.253 L 13.202 9.139 L 12.401 9.139 L 12.286 9.025 L 10.684 9.139 L 10.570 9.253 L 9.768 9.368 L 9.082 9.711 L 8.853 9.711 L 8.624 9.940 L 8.052 10.169 L 6.335 11.771 L 6.335 11.886 L 5.992 12.229 L 5.534 13.144 L 5.534 13.373 Z M 7.709 4.790 L 7.937 4.333 L 8.624 3.760 L 15.261 3.760 L 15.834 4.104 L 15.834 4.218 L 16.063 4.447 L 16.177 5.134 L 16.063 5.248 L 16.063 5.477 L 15.719 5.820 L 8.166 5.820 L 7.823 5.477 Z" fill="currentColor" fill-rule="evenodd" clip-rule="evenodd"/>
  <path id="accent" d="M 13.202 12.572 L 12.973 12.572 L 12.858 12.458 L 12.401 12.572 L 12.172 12.801 L 11.485 14.289 L 11.142 14.632 L 10.798 14.747 L 10.226 15.433 L 10.226 16.463 L 10.455 16.921 L 11.027 17.379 L 11.485 17.379 L 11.599 17.493 L 11.714 17.379 L 12.172 17.379 L 12.858 16.806 L 13.087 16.349 L 12.973 14.861 L 13.087 14.747 L 13.087 14.518 L 13.202 14.403 L 13.202 14.174 L 13.545 13.373 L 13.545 13.030 Z" fill="currentColor" fill-rule="evenodd" clip-rule="evenodd"/>
</svg>