<svg width="24" height="24" viewBox="0 0 24 24" fill="none" xmlns="http://www.w3.org/2000/svg">
  <path d="M 4.38 15.59 L 4.38 16.03 L 4.49 16.14 L 6.26 16.25 L 6.37 16.14 L 9.02 16.14 L 9.13 16.03 L 9.13 15.59 L 8.91 15.37 L 4.60 15.37 Z M 4.38 12.50 L 4.38 12.94 L 4.93 13.16 L 8.36 13.05 L 8.58 12.83 L 8.58 12.61 L 8.36 12.28 L 4.60 12.28 Z M 4.27 9.63 L 4.49 9.96 L 9.13 9.96 L 9.35 9.74 L 9.35 9.41 L 9.13 9.18 L 4.49 9.18 Z M 11.56 9.07 L 10.34 10.40 L 10.01 11.06 L 9.68 12.17 L 9.68 13.60 L 9.79 13.71 L 9.79 14.15 L 10.23 15.26 L 10.90 16.14 L 11.78 16.91 L 12.66 17.36 L 13.44 17.58 L 15.31 17.58 L 16.53 17.13 L 16.75 17.58 L 20.06 20.89 L 20.50 21.11 L 21.50 21.00 L 22.05 20.45 L 22.16 20.12 L 22.16 19.34 L 22.05 19.12 L 18.96 15.92 L 18.40 15.48 L 18.40 15.26 L 18.62 15.04 L 18.62 14.82 L 18.96 14.15 L 18.96 13.71 L 19.07 13.60 L 19.07 12.17 L 18.74 11.06 L 18.18 10.07 L 16.86 8.85 L 16.31 8.52 L 15.20 8.19 L 13.55 8.19 L 12.77 8.41 Z M 17.74 16.25 L 18.07 16.36 L 21.27 19.56 L 21.27 20.01 L 21.05 20.23 L 20.72 20.23 L 17.41 16.91 L 17.41 16.58 Z M 13.88 9.07 L 14.87 9.07 L 15.97 9.41 L 16.53 9.74 L 17.52 10.73 L 17.96 11.61 L 18.07 12.50 L 18.18 12.61 L 18.07 13.82 L 17.85 14.48 L 17.19 15.48 L 16.20 16.25 L 14.98 16.69 L 13.21 16.58 L 12.00 15.92 L 11.12 14.93 L 10.56 13.49 L 10.56 12.39 L 11.12 10.84 L 12.55 9.52 Z M 4.27 6.31 L 4.49 6.76 L 12.99 6.76 L 13.21 6.53 L 13.21 6.20 L 13.10 5.98 L 12.88 5.87 L 4.71 5.87 L 4.49 5.98 Z M 2.50 2.67 L 1.95 3.22 L 1.73 3.77 L 1.73 20.12 L 2.06 20.78 L 2.61 21.22 L 3.17 21.44 L 15.75 21.44 L 16.31 21.22 L 16.97 20.56 L 17.19 19.89 L 17.19 18.68 L 16.97 18.35 L 16.53 18.35 L 16.31 18.57 L 16.31 20.01 L 15.64 20.56 L 3.17 20.56 L 2.73 20.23 L 2.61 20.01 L 2.61 3.77 L 3.06 3.33 L 3.39 3.22 L 15.53 3.22 L 15.86 3.33 L 16.31 3.88 L 16.31 7.53 L 16.64 7.86 L 16.86 7.86 L 17.19 7.53 L 17.19 3.88 L 16.86 3.11 L 16.42 2.67 L 15.97 2.45 L 2.95 2.45 Z" fill="currentColor" fill-rule="evenodd" clip-rule="evenodd"/>
</svg>
